PathFileType	4	(X/Y/Z)	C:/Users/beibeiliu/ov580/test_trc/User2\sequence.16_training_dense_right.trc
DataRate	CameraRate	NumFrames	NumMarkers	Units	OrigDataRate	OrigDataStartFrame	OrigNumFrames
120	120	16	19	mm	120	29	86
Frame#	Time	ThumbCMC			ThumbMCP			ThumbIP			ThumbTip			IndexMCP			IndexPIP			IndexTip			MiddleMCP			MiddlePIP			MiddleTip			RingMCP			RingPIP			RingTip			PinkyMCP			PinkyPIP			PinkyTip			BackHand1			BackHand2			BackHand3	
		X0	Y0	Z0	X1	Y1	Z1	X2	Y2	Z2	X3	Y3	Z3	X4	Y4	Z4	X5	Y5	Z5	X6	Y6	Z6	X7	Y7	Z7	X8	Y8	Z8	X9	Y9	Z9	X10	Y10	Z10	X11	Y11	Z11	X12	Y12	Z12	X13	Y13	Z13	X14	Y14	Z14	X15	Y15	Z15	X16	Y16	Z16	X17	Y17	Z17	X18	Y18	Z18	
28	0.233333	226.949	25.2327	-65.0217	218.252	35.8514	-94.6556	208.559	41.7318	-123.937	198.048	44.9537	-148.653	195.177	0.650746	-136.37	168.193	14.1036	-130.53	178.896	22.83	-93.4923	180.825	-18.5363	-128.27	156.365	2.06757	-115.518	180.679	8.90903	-81.8095	168.871	-35.8498	-120.148	147.9	-15.4254	-111.936	168.883	-5.30682	-84.4511	168.912	-61.5278	-98.2369	148.671	-67.2962	-114.06	131.454	-73.9086	-127.688	216.945	-43.1876	-71.9744	227.856	-39.1347	-38.3385	239.196	-11.4208	-70.57	
29	0.241667	217.718	29.6266	-58.3092	206.705	42.3955	-86.6797	197.911	49.5849	-122.471	188.115	45.5899	-146.513	196.253	2.12034	-134.556	168.329	8.13132	-130.351	170.917	14.6956	-94.8865	187.764	-19.0019	-130.402	158.992	-7.27011	-113.853	180.293	6.14902	-81.695	183.627	-39.286	-122.713	156.314	-23.2726	-115.293	173.952	-10.4387	-85.7964	188.655	-64.4394	-104.218	169.629	-75.8654	-122.456	156.973	-85.8109	-136.575	227.113	-38.4007	-75.3268	235.311	-35.2005	-39.7496	239.747	0.557108	-64.2375	
30	0.25	203.468	31.6685	-55.4992	190.958	42.5726	-83.0543	180.855	46.7308	-114.308	173.136	44.728	-137.627	198.468	12.4551	-132.117	168.41	1.60932	-129.063	165.233	4.51078	-95.1293	195.898	-14.714	-130.294	162.5	-15.3745	-116.309	176.969	-4.6271	-80.8837	196.372	-36.7993	-128.615	166.52	-30.5832	-121.565	178.297	-20.9775	-85.7511	209.093	-60.0876	-112.958	195.797	-71.1604	-133.491	188.185	-83.4753	-149.644	235.276	-29.319	-74.5691	238.562	-25.6065	-42.0478	235.224	9.46755	-59.6335	
31	0.258333	183.866	22.7185	-47.433	169.257	32.1679	-78.6064	160.307	37.0286	-108.61	153.447	37.6272	-134.933	194.698	15.9197	-126.128	165.985	-3.0215	-129.536	164.087	-8.74689	-93.8945	199.841	-8.19939	-131.454	170.149	-25.0674	-121.656	174.306	-12.3645	-81.1114	207.379	-26.4326	-131.186	179.435	-37.1754	-125.012	179.673	-25.8804	-92.2859	230.182	-47.478	-116.57	222.857	-56.5269	-139.6	219.497	-65.4037	-162.987	237.836	-12.7371	-73.276	239.843	-12.8345	-36.9593	223.636	14.8869	-53.5022	
32	0.266667	164.988	6.34425	-39.8825	149.731	14.4203	-73.033	139.405	22.9186	-104.391	136.224	23.2673	-129.709	181.903	20.9509	-119.573	161.398	-7.83268	-128.826	161.155	-18.8917	-98.1786	198.114	3.79197	-125.381	173.948	-25.0994	-125.436	176.75	-25.2894	-84.6569	213.713	-11.1013	-128.913	190.939	-32.427	-131.458	188.386	-32.3065	-93.6003	240.994	-21.0082	-115.095	243.592	-31.2468	-140.735	241.659	-34.7077	-169.237	235.191	0.64948	-66.5301	235.701	-8.13007	-35.4245	207.313	17.8428	-48.3564	
33	0.275	157.337	-8.40012	-39.5814	138.357	-3.05134	-65.6565	125.786	6.16581	-97.1288	121.103	13.328	-124.487	165.348	18.8977	-117.893	159.179	-9.89563	-129.704	163.358	-26.8419	-98.1659	192.69	7.77232	-121.158	176.432	-25.112	-128.043	173.876	-31.6929	-88.956	209.527	-2.13222	-128.763	195.144	-27.9519	-132.963	191.142	-34.9129	-98.7279	240.09	-3.53737	-113.224	245.684	-7.05666	-137.329	251.974	-6.79466	-164.966	224.1	10.2862	-60.9613	224.732	-0.938444	-32.2446	189.047	13.8619	-39.2476	
34	0.283333	151.81	-12.8618	-39.2005	130.985	-7.43509	-65.6497	121.776	-2.03634	-93.4653	111.677	5.01766	-120.982	161.601	13.8697	-113.665	152.201	-17.4672	-126.166	156.948	-32.5266	-96.6146	178.372	6.66045	-121.835	171.851	-26.5767	-126.535	171.029	-33.4713	-84.6837	200.661	0.974551	-124.019	191.679	-26.0495	-131.678	183.292	-33.8056	-93.6175	232.051	-0.0154586	-109.988	239.201	-2.50842	-134.627	243.847	2.01631	-157.932	216.015	7.99549	-57.8791	216.627	-2.40208	-26.6784	180.779	12.4276	-39.4185	
35	0.291667	144.108	-17.1648	-33.4535	123.98	-13.3154	-65.0576	110.11	-10.4912	-93.7749	107.349	-9.37623	-118.687	148.389	5.055	-115.669	149.178	-23.7587	-124.188	148.288	-40.5541	-92.6942	172.316	-3.45221	-121.842	165.552	-38.1483	-121.003	166.838	-41.0196	-80.4162	195.998	-8.3565	-120.927	180.613	-37.3345	-125.042	178.889	-41.4585	-87.1702	224.343	-5.47154	-109.872	228.668	-10.4085	-129.447	237.042	-9.69324	-155.094	204.115	9.23122	-56.3551	208.713	-1.47557	-22.4568	174.773	11.1857	-37.6577	
36	0.3	138.922	-14.991	-34.5134	121.139	-20.3149	-59.6683	106.031	-18.1071	-95.1343	99.0843	-22.2595	-116.623	148.345	-7.02825	-114.588	140.059	-37.8819	-119.844	145.356	-48.2664	-86.5152	164.764	-16.7788	-119.157	159.097	-50.0718	-114.179	154.999	-45.7608	-72.1357	188.847	-23.4486	-118.197	174.937	-53.1559	-115.883	170.546	-48.0484	-80.5883	220.386	-22.8665	-103.654	227.462	-31.6798	-131.785	229.97	-33.2381	-149.564	200.199	1.12923	-58.1756	202.925	0.109683	-27.4342	170.325	8.95315	-36.5946	
37	0.308333	139.951	-9.72567	-29.9951	117.759	-14.1413	-57.0565	102.779	-16.477	-92.693	95.0125	-23.0227	-113.617	146.491	-12.7807	-111.789	137.455	-43.2322	-114.663	133.883	-47.8801	-77.587	164.311	-27.4859	-116.724	152.62	-58.9423	-104.882	152.434	-45.9511	-65.4846	184.816	-37.2185	-115.456	165.273	-63.5628	-106.164	161.56	-51.5786	-74.3732	216.883	-41.1934	-103.53	218.923	-55.7102	-127.18	219.405	-64.6178	-149.093	203.791	-3.70655	-59.4788	209.05	-2.29556	-30.1387	173.307	11.1581	-45.1667	
38	0.316667	142.955	4.62045	-29.472	120.162	-0.00915682	-55.4701	103.611	-5.14041	-88.8851	91.5706	-13.2364	-105.584	141.594	-17.0011	-111.933	124.494	-41.9193	-104.539	129.804	-36.8913	-68.9165	159.914	-34.6597	-111.376	136.711	-57.2232	-96.3895	140.471	-39.2992	-58.3038	170.274	-49.5099	-110.262	152.054	-68.4051	-96.9852	152.437	-47.5355	-65.3377	204.279	-56.8572	-97.3351	200.815	-76.5936	-112.975	195.07	-91.0097	-133.098	203.253	-12.262	-61.5907	209.103	-4.72014	-32.7613	181.17	13.668	-48.366	
39	0.325	149.005	21.9654	-31.7761	126.991	16.7296	-59.5748	109.378	9.67542	-86.6669	92.2132	4.91251	-101.336	139.05	-8.17381	-106.272	112.96	-28.8848	-98.0439	122.763	-20.0895	-62.5233	144.978	-33.3312	-107.006	121.042	-48.445	-82.7876	135.494	-27.9141	-50.9554	154.577	-55.929	-100.339	131.481	-59.9287	-81.5871	145.928	-36.0859	-56.6762	183.328	-67.8178	-91.3664	171.591	-90.4079	-101.696	158.753	-107.723	-115.68	202.8	-22.6415	-62.9008	213.032	-13.245	-31.1727	187.852	14.2859	-52.4839	
40	0.333333	162.437	33.3514	-38.0745	137.326	33.4433	-58.217	114.529	30.4303	-84.4259	98.1718	26.0296	-101.101	136.324	-0.993038	-105.258	109.765	-14.2833	-90.1768	128.6	-2.34669	-58.0745	138.939	-29.6573	-99.7099	111.068	-30.742	-78.3129	130.618	-11.6211	-45.9596	143.423	-49.6373	-89.826	118.069	-44.75	-71.246	139.653	-25.7583	-49.2165	163.424	-72.1724	-77.6956	143.545	-88.7576	-85.0917	127.092	-103.223	-94.4188	196.57	-25.409	-62.5461	213.852	-16.6898	-33.9468	194.399	9.72528	-53.8276	
41	0.341667	178.634	38.238	-42.3316	153.913	48.4411	-61.591	130.066	44.9907	-88.8111	109.712	46.1944	-106.111	138.138	8.95891	-105.93	110.649	6.05866	-86.9324	131.061	15.0796	-59.3659	130.687	-17.0226	-97.9332	108.49	-11.9503	-71.0956	137.253	3.31335	-44.7283	129.501	-38.3144	-85.9707	110.447	-25.4309	-68.5143	142.079	-11.5658	-48.3215	147.79	-63.297	-70.1403	120.488	-73.1536	-79.5768	103.65	-84.5508	-83.1637	194.821	-29.5428	-60.7912	209.719	-22.4173	-36.3164	201.615	10.2513	-57.9071	
42	0.35	195.151	37.6733	-49.944	174.496	51.9448	-69.2602	150.453	56.6242	-98.1944	131.454	60.2037	-116.027	142.699	12.7717	-107.939	119.849	20.2434	-91.6731	141.397	25.8145	-63.3746	131.934	-8.57679	-97.8314	112.487	5.48343	-74.8286	144.231	16.9474	-48.5842	129.381	-23.0771	-87.6438	111.755	-6.28197	-68.5463	141.311	4.21304	-52.5963	137.037	-53.0099	-67.9991	113.109	-57.0109	-73.8301	89.4901	-63.2464	-82.7404	191.92	-31.2616	-61.0221	209.345	-28.0295	-37.412	207.181	3.66644	-64.5472	
43	0.358333	210.661	36.5288	-56.926	191.806	48.3897	-77.8944	171.986	56.9027	-105.235	155.208	62.0679	-122.322	156.845	14.159	-112.511	131.598	34.877	-96.7228	151.876	36.932	-69.844	142.732	-0.878172	-101.534	123.722	23.8216	-81.8128	153.674	26.9455	-56.5001	132.218	-16.4558	-91.5108	117.925	8.88894	-74.9057	146.078	10.3787	-55.2546	131.135	-43.2062	-69.984	107.912	-39.9275	-78.568	84.5456	-42.2848	-85.3974	190.375	-31.9373	-61.0179	209.421	-31.4205	-38.2088	213.734	-5.28772	-62.8106	
